<svg xmlns="http://www.w3.org/2000/svg" xmlns:xlink="http://www.w3.org/1999/xlink" viewBox="0 0 212.09 52.88"><defs><style>.cls-1{isolation:isolate;}.cls-2{fill:#928e8d;}.cls-3{fill:#7e7b7d;}.cls-4{fill:url(#linear-gradient);}.cls-5{fill:url(#linear-gradient-2);}.cls-6{fill:url(#linear-gradient-3);}.cls-7{fill:#5f5c5a;}.cls-8{fill:url(#linear-gradient-4);}.cls-9{fill:url(#linear-gradient-5);}.cls-10,.cls-20{opacity:0.15;}.cls-10,.cls-15,.cls-16,.cls-17,.cls-18,.cls-19,.cls-20,.cls-21,.cls-22{mix-blend-mode:overlay;}.cls-10{fill:url(#radial-gradient);}.cls-11{opacity:0.75;}.cls-12,.cls-14,.cls-24,.cls-25{fill:none;stroke:#fff;stroke-miterlimit:10;}.cls-12,.cls-14{stroke-width:0.02px;}.cls-13{opacity:0.65;}.cls-14{opacity:0.1;}.cls-15{opacity:0.7;fill:url(#radial-gradient-2);}.cls-16{fill:url(#radial-gradient-3);}.cls-17{fill:url(#radial-gradient-4);}.cls-18,.cls-19{opacity:0.6;}.cls-18{fill:url(#radial-gradient-5);}.cls-19{fill:url(#radial-gradient-6);}.cls-20{fill:url(#radial-gradient-7);}.cls-21{fill:url(#linear-gradient-6);}.cls-22{fill:url(#linear-gradient-7);}.cls-23{opacity:0.06;}.cls-24{stroke-width:0.02px;}.cls-25{stroke-width:0.02px;}</style><linearGradient id="linear-gradient" x1="189.9" y1="27.94" x2="203.05" y2="37.51" gradientTransform="translate(-0.88 -0.11) rotate(-0.21)" gradientUnits="userSpaceOnUse"><stop offset="0.01" stop-color="#9f9c9a"/><stop offset="0.68" stop-color="#e3e2e2"/><stop offset="1" stop-color="#fff"/></linearGradient><linearGradient id="linear-gradient-2" x1="171.3" y1="29.78" x2="183.01" y2="40.62" xlink:href="#linear-gradient"/><linearGradient id="linear-gradient-3" x1="201.12" y1="53.26" x2="201.12" y2="2.94" gradientTransform="translate(-0.88 -0.11) rotate(-0.21)" gradientUnits="userSpaceOnUse"><stop offset="0" stop-color="#551e2e"/><stop offset="0.93" stop-color="#d31036"/></linearGradient><linearGradient id="linear-gradient-4" x1="182.23" y1="53.86" x2="182.23" y2="7.61" gradientTransform="translate(-0.88 -0.11) rotate(-0.21)" gradientUnits="userSpaceOnUse"><stop offset="0" stop-color="#772838"/><stop offset="0.61" stop-color="#b11b2e"/><stop offset="0.96" stop-color="#ce1429"/></linearGradient><linearGradient id="linear-gradient-5" x1="163.6" y1="52.67" x2="163.6" y2="12.21" gradientTransform="translate(-0.88 -0.11) rotate(-0.21)" gradientUnits="userSpaceOnUse"><stop offset="0" stop-color="#8d1c35"/><stop offset="0.53" stop-color="#b71b30"/><stop offset="0.95" stop-color="#d41a2c"/></linearGradient><radialGradient id="radial-gradient" cx="161.47" cy="53.52" r="7.87" gradientTransform="translate(-0.88 -0.11) rotate(-0.21)" gradientUnits="userSpaceOnUse"><stop offset="0" stop-color="#6b6866"/><stop offset="0.3" stop-color="#9b9998"/><stop offset="0.78" stop-color="#e3e2e2"/><stop offset="1" stop-color="#fff"/></radialGradient><radialGradient id="radial-gradient-2" cx="179.6" cy="53.39" r="36.06" gradientUnits="userSpaceOnUse"><stop offset="0" stop-color="#fff"/><stop offset="1" stop-color="#fff" stop-opacity="0"/></radialGradient><radialGradient id="radial-gradient-3" cx="160.39" cy="11.64" r="23.17" gradientUnits="userSpaceOnUse"><stop offset="0" stop-color="#fff" stop-opacity="0"/><stop offset="1" stop-color="#fff"/></radialGradient><radialGradient id="radial-gradient-4" cx="212.94" cy="52.34" r="33" gradientTransform="matrix(0.73, -0.69, 0.49, 0.52, 31.96, 170.75)" gradientUnits="userSpaceOnUse"><stop offset="0" stop-color="#78170e"/><stop offset="1" stop-color="#fff" stop-opacity="0"/></radialGradient><radialGradient id="radial-gradient-5" cx="222.52" cy="4.79" r="22" gradientTransform="translate(63.96 -151.54) rotate(42.47) scale(1 1.72)" xlink:href="#radial-gradient-2"/><radialGradient id="radial-gradient-6" cx="214.64" cy="43.52" r="31.16" gradientTransform="matrix(0.81, 0.58, -1, 1.4, 83.48, -142.2)" gradientUnits="userSpaceOnUse"><stop offset="0" stop-color="#fff"/><stop offset="1" stop-color="#fff" stop-opacity="0"/></radialGradient><radialGradient id="radial-gradient-7" cx="182.76" cy="54.78" r="11.54" xlink:href="#radial-gradient"/><linearGradient id="linear-gradient-6" x1="165.36" y1="-25.96" x2="177.71" y2="57.37" gradientTransform="translate(-0.88 -0.11) rotate(-0.21)" xlink:href="#radial-gradient-2"/><linearGradient id="linear-gradient-7" x1="221.9" y1="-42.95" x2="176.81" y2="45.69" gradientTransform="translate(-0.88 -0.11) rotate(-0.21)" xlink:href="#radial-gradient-2"/></defs><g class="cls-1"><g id="Layer_2" data-name="Layer 2"><g id="Laag_1" data-name="Laag 1"><path class="cls-2" d="M5.12,45.64c0,.33,0,.34-.09.39a3.54,3.54,0,0,1-1.54.33,3.55,3.55,0,0,1-2.38-.78,2.81,2.81,0,0,1-.86-2.06,2.72,2.72,0,0,1,1.21-2.38,3.51,3.51,0,0,1,1.92-.46,6.07,6.07,0,0,1,1.11.12,3.5,3.5,0,0,0,.59.08c.07,0,.09,0,.09.06a9.18,9.18,0,0,0,0,1c0,.12,0,.15-.07.15s0,0,0-.11a1.16,1.16,0,0,0-.15-.48A2.12,2.12,0,0,0,3.15,41a2.28,2.28,0,0,0-1.55.48,2.32,2.32,0,0,0-.72,1.84,2.89,2.89,0,0,0,.77,2,2.62,2.62,0,0,0,1.89.78,2.16,2.16,0,0,0,.83-.15.29.29,0,0,0,.14-.26V44.41c0-.59,0-.67-.32-.75l-.25,0s-.06,0-.06,0,0-.06.12-.06l.82,0,.71,0c.08,0,.11,0,.11.06s0,0,0,0l-.18,0c-.2,0-.26.16-.27.42s0,.45,0,.75Z"/><path class="cls-2" d="M9.52,44.17c0,1.07,0,1.53.16,1.66s.31.17.87.17c.38,0,.7,0,.88-.22a1.05,1.05,0,0,0,.18-.44c0-.05,0-.09.07-.09s0,0,0,.11a4.37,4.37,0,0,1-.11.72c0,.17-.07.2-.45.2-.62,0-1.24,0-1.94,0l-.71,0q-.12,0-.12-.06s0,0,.06,0l.22,0c.14,0,.18-.19.21-.4s0-.88,0-1.57V42.88c0-1.13,0-1.33,0-1.56s-.07-.37-.31-.42l-.25,0s-.06,0-.06,0,0-.06.12-.06l.82,0,.78,0q.12,0,.12.06s0,0-.06,0l-.24,0c-.21,0-.27.16-.28.42s0,.43,0,1.56Z"/><path class="cls-2" d="M13.92,43.51a2.8,2.8,0,0,1,2.85-2.83,2.64,2.64,0,0,1,2.85,2.72,2.84,2.84,0,0,1-2.89,3A2.72,2.72,0,0,1,13.92,43.51Zm5,.09c0-1.74-1.06-2.67-2.21-2.67s-2.11.79-2.11,2.38,1,2.77,2.32,2.77C17.58,46.08,18.93,45.71,18.93,43.6Z"/><path class="cls-2" d="M22.86,42.88c0-1.13,0-1.33,0-1.56s-.08-.37-.32-.42l-.21,0c-.06,0-.09,0-.09,0s0-.06.12-.06l.81,0,.79,0c1.19,0,1.45.73,1.45,1.09a1.82,1.82,0,0,1-.68,1.3A1.7,1.7,0,0,1,26,44.7a1.66,1.66,0,0,1-1.85,1.58l-.52,0c-.21,0-.42,0-.45,0l-.71,0c-.08,0-.11,0-.11,0s0-.05.11-.05a.51.51,0,0,0,.17,0c.15,0,.18-.19.2-.4s0-.88,0-1.57Zm.58.16c0,.05,0,.07,0,.08a2.15,2.15,0,0,0,.44,0c.41,0,.51,0,.66-.19a1.11,1.11,0,0,0,.26-.73c0-.6-.27-1.25-1-1.25a1.55,1.55,0,0,0-.34,0c-.07,0-.09,0-.09.08Zm0,.77c0,.56,0,1.46,0,1.56,0,.36,0,.46.24.57a1.83,1.83,0,0,0,.64.11,1,1,0,0,0,1-1,1.72,1.72,0,0,0-.7-1.45,1.17,1.17,0,0,0-.6-.21h-.57s0,0,0,0Z"/><path class="cls-2" d="M29.71,44.12s-.05,0-.07.06l-.43,1.28a1.42,1.42,0,0,0-.1.49c0,.14.13.21.26.21h.06c.07,0,.1,0,.1,0s-.07.06-.13.06l-.55,0-.82,0c-.09,0-.13,0-.13-.06s0,0,.1,0l.17,0c.33,0,.48-.32.61-.68L30.42,41c.09-.24.12-.28.16-.28s.08,0,.16.26,1.25,3.27,1.69,4.37c.26.64.47.76.62.8a.92.92,0,0,0,.29,0s.08,0,.08,0-.07.06-.15.06-.64,0-1.14,0c-.13,0-.21,0-.21-.05s0,0,0,0,.08-.08,0-.19l-.67-1.79s0,0-.07,0Zm1.47-.26s0,0,0,0l-.69-2c0-.11-.07-.11-.11,0l-.64,2s0,0,0,0Z"/><path class="cls-2" d="M36.66,44.17c0,1.07,0,1.53.15,1.66s.31.17.87.17c.39,0,.71,0,.88-.22a1.07,1.07,0,0,0,.19-.44c0-.05,0-.09.06-.09s0,0,0,.11a4.37,4.37,0,0,1-.11.72c0,.17-.07.2-.46.2-.62,0-1.24,0-1.94,0l-.71,0q-.12,0-.12-.06s0,0,.06,0l.22,0c.15,0,.18-.19.21-.4s0-.88,0-1.57V42.88c0-1.13,0-1.33,0-1.56S36,41,35.72,40.9l-.25,0s0,0,0,0,0-.06.11-.06l.82,0,.78,0q.12,0,.12.06s0,0-.06,0l-.24,0c-.21,0-.27.16-.28.42s0,.43,0,1.56Z"/><path class="cls-2" d="M49.6,43.08a0,0,0,0,0,0,0v-.15c0-1.13,0-1.33,0-1.56s-.07-.37-.31-.42l-.25,0s0,0,0,0,0-.06.11-.06l.82,0,.71,0q.12,0,.12.06s0,0-.06,0l-.18,0c-.2,0-.26.16-.27.42s0,.43,0,1.56v1.28c0,.69,0,1.26,0,1.57s.06.37.28.4l.33,0s.06,0,.06,0,0,.06-.12.06l-.89,0-.71,0q-.12,0-.12-.06s0,0,.06,0l.22,0c.14,0,.18-.19.21-.4s0-.88,0-1.57V43.4a.05.05,0,0,0,0,0H46.53s0,0,0,0v.76c0,.69,0,1.26,0,1.57s.07.37.29.4l.32,0s.06,0,.06,0,0,.06-.12.06l-.89,0-.71,0c-.08,0-.11,0-.11-.06s0,0,0,0l.22,0c.15,0,.18-.19.21-.4s0-.88,0-1.57V42.88c0-1.13,0-1.33,0-1.56s-.07-.37-.31-.42l-.24,0s-.06,0-.06,0,0-.06.11-.06l.82,0,.71,0q.12,0,.12.06s0,0-.06,0l-.18,0c-.2,0-.25.16-.27.42s0,.43,0,1.56V43s0,0,0,0Z"/><path class="cls-2" d="M53.48,43.51a2.8,2.8,0,0,1,2.85-2.83,2.64,2.64,0,0,1,2.85,2.72,2.84,2.84,0,0,1-2.89,3A2.71,2.71,0,0,1,53.48,43.51Zm5,.09c0-1.74-1-2.67-2.2-2.67s-2.11.79-2.11,2.38,1,2.77,2.31,2.77C57.14,46.08,58.48,45.71,58.48,43.6Z"/><path class="cls-2" d="M63,44.17c0,1.07,0,1.53.16,1.66s.3.17.87.17c.38,0,.7,0,.87-.22a1,1,0,0,0,.19-.44c0-.05,0-.09.07-.09s0,0,0,.11a4.37,4.37,0,0,1-.11.72c-.05.17-.07.2-.46.2-.62,0-1.23,0-1.94,0l-.71,0c-.08,0-.11,0-.11-.06s0,0,.06,0l.21,0c.15,0,.18-.19.21-.4s0-.88,0-1.57V42.88c0-1.13,0-1.33,0-1.56s-.07-.37-.31-.42l-.24,0s-.06,0-.06,0,0-.06.12-.06l.81,0,.79,0c.08,0,.11,0,.11.06s0,0-.06,0l-.24,0c-.21,0-.26.16-.28.42s0,.43,0,1.56Z"/><path class="cls-2" d="M68.22,42.88c0-1.13,0-1.33,0-1.56s0-.37-.29-.42l-.24,0c-.06,0-.08,0-.08,0s0-.06.11-.06l.82,0,1,0a3.84,3.84,0,0,1,2.9.83,2.59,2.59,0,0,1,.71,1.84,3,3,0,0,1-.79,2,2.85,2.85,0,0,1-2.19.83c-.31,0-.7,0-1,0l-.6,0h-.29l-.42,0q-.12,0-.12-.06s0,0,.08,0l.2,0c.14,0,.18-.19.21-.4s0-.88,0-1.57Zm.6.78c0,.77,0,1.44,0,1.58a1.6,1.6,0,0,0,.08.55c.09.13.37.29,1.23.29a2.41,2.41,0,0,0,1.72-.68,2.51,2.51,0,0,0,.58-1.73,2.6,2.6,0,0,0-.69-1.82A3,3,0,0,0,69.39,41a1.86,1.86,0,0,0-.47,0,.12.12,0,0,0-.09.14c0,.25,0,1,0,1.55Z"/><path class="cls-2" d="M76.34,42.88c0-1.13,0-1.33,0-1.56s-.09-.37-.25-.41l-.22,0s-.06,0-.06,0,0-.06.12-.06l.73,0,.71,0c.08,0,.11,0,.11.06s0,0,0,0l-.18,0c-.2,0-.26.16-.27.42s0,.43,0,1.56v1.28c0,.69,0,1.26,0,1.57s.06.37.28.4l.3,0c.06,0,.09,0,.09,0s0,.06-.11.06l-.9,0-.71,0q-.12,0-.12-.06s0,0,.08,0a.68.68,0,0,0,.19,0c.15,0,.19-.19.22-.4s0-.88,0-1.57Z"/><path class="cls-2" d="M80.89,44.12c0-2.61,0-1.67,0-3.08,0-.28,0-.36.08-.36s.19.16.26.23l2.3,2.49c.72.76,1.51,1.65,1.74,1.89l-.08-3.68c0-.47-.06-.63-.28-.69a1.52,1.52,0,0,0-.31,0c-.08,0-.11,0-.11-.05s.06,0,.15,0l.75,0,.62,0c.08,0,.13,0,.13,0s0,.05-.08.05l-.19,0c-.2,0-.25.15-.25.65l0,4.23c0,.48,0,.52-.06.52s-.15-.08-.53-.47c-.08-.07-1.12-1.13-1.89-2s-1.66-1.82-1.89-2.08l.09,3.47c0,.6.09.78.28.84a1.51,1.51,0,0,0,.37,0s0,0,0,0,0,.06-.13.06c-.41,0-.7,0-.76,0l-.7,0c-.07,0-.12,0-.12-.06s0,0,.06,0a1,1,0,0,0,.3,0c.18,0,.22-.26.22-.92Z"/><path class="cls-2" d="M93.63,45.64c0,.33,0,.34-.09.39a3.92,3.92,0,0,1-3.92-.45,2.81,2.81,0,0,1-.86-2.06A2.72,2.72,0,0,1,90,41.14a3.49,3.49,0,0,1,1.92-.46A6.19,6.19,0,0,1,93,40.8a3.5,3.5,0,0,0,.59.08c.07,0,.08,0,.08.06a9.18,9.18,0,0,0,0,1c0,.12,0,.15-.06.15s0,0,0-.11a1.34,1.34,0,0,0-.15-.48A2.15,2.15,0,0,0,91.65,41a2.06,2.06,0,0,0-2.26,2.32,2.94,2.94,0,0,0,.76,2,2.66,2.66,0,0,0,1.9.78,2.16,2.16,0,0,0,.83-.15.29.29,0,0,0,.14-.26V44.41c0-.59,0-.67-.32-.75l-.25,0s-.06,0-.06,0,0-.06.12-.06l.82,0,.71,0c.08,0,.11,0,.11.06s0,0-.06,0l-.18,0c-.19,0-.25.16-.26.42s0,.45,0,.75Z"/><path class="cls-2" d="M102,44.17c0,1.07,0,1.53.16,1.66s.3.17.87.17c.38,0,.7,0,.87-.22a1,1,0,0,0,.19-.44c0-.05,0-.09.07-.09s0,0,0,.11a4.37,4.37,0,0,1-.11.72c0,.17-.07.2-.45.2-.63,0-1.24,0-2,0l-.71,0c-.08,0-.11,0-.11-.06s0,0,.06,0l.21,0c.15,0,.18-.19.21-.4s0-.88,0-1.57V42.88c0-1.13,0-1.33,0-1.56s-.07-.37-.31-.42l-.24,0s-.06,0-.06,0,0-.06.12-.06l.81,0,.79,0c.08,0,.11,0,.11.06s0,0-.06,0l-.24,0c-.21,0-.26.16-.28.42s0,.43,0,1.56Z"/><path class="cls-2" d="M107.17,42.88c0-1.13,0-1.33,0-1.56s-.09-.37-.25-.41a1,1,0,0,0-.22,0s-.06,0-.06,0,0-.06.12-.06l.73,0,.71,0q.12,0,.12.06s0,0-.06,0l-.18,0c-.2,0-.26.16-.27.42s0,.43,0,1.56v1.28c0,.69,0,1.26,0,1.57s.07.37.28.4l.3,0c.06,0,.09,0,.09,0s0,.06-.11.06l-.9,0-.71,0q-.12,0-.12-.06s0,0,.08,0a.68.68,0,0,0,.19,0c.15,0,.19-.19.22-.4s0-.88,0-1.57Z"/><path class="cls-2" d="M117.34,45.32c0,.26.08.67.39.77a1.34,1.34,0,0,0,.45.07s.08,0,.08,0,0,.06-.11.06-1,0-1.26,0-.2,0-.2-.07,0,0,0,0,.05-.13,0-.26l-.35-3.78-1.79,3.81c-.15.32-.18.38-.24.38s-.09-.07-.23-.33l-.84-1.68c-.07-.13-.9-1.92-1-2.12l-.3,3.42c0,.11,0,.21,0,.34s.08.24.19.26a1.09,1.09,0,0,0,.26,0s.08,0,.08,0,0,.07-.11.07l-.7,0-.61,0c-.07,0-.12,0-.12-.06s0,0,.07,0a.7.7,0,0,0,.22,0c.24,0,.25-.3.29-.6l.52-4.71c0-.08,0-.14.08-.14s.07,0,.11.11l2.22,4.55,2.13-4.54c0-.07,0-.12.1-.12s.08.06.09.2Z"/><path class="cls-2" d="M121.15,42.88c0-1.13,0-1.33,0-1.56s-.08-.37-.24-.41l-.23,0s0,0,0,0,0-.06.11-.06l.73,0,.71,0q.12,0,.12.06s0,0-.06,0l-.18,0c-.2,0-.25.16-.27.42s0,.43,0,1.56v1.28c0,.69,0,1.26,0,1.57s.07.37.29.4l.29,0c.07,0,.09,0,.09,0s0,.06-.11.06l-.9,0-.71,0c-.08,0-.11,0-.11-.06s0,0,.08,0l.18,0c.15,0,.19-.19.22-.4s0-.88,0-1.57Z"/><path class="cls-2" d="M127.47,44.16c0,.69,0,1.26,0,1.57s.07.37.28.4l.33,0s.06,0,.06,0,0,.06-.12.06l-.89,0-.71,0q-.12,0-.12-.06s0,0,.06,0l.22,0c.14,0,.18-.19.21-.4s0-.88,0-1.57V41.09l-1.08,0c-.45,0-.62.06-.74.23a1,1,0,0,0-.12.22c0,.06,0,.08-.07.08s0,0,0-.07.15-.69.16-.75,0-.14.07-.14a2.11,2.11,0,0,0,.32.09l.58,0h2.71a3.36,3.36,0,0,0,.52,0l.2,0s0,0,0,.09c0,.21,0,.71,0,.79s0,.1,0,.1-.05,0-.06-.12v-.08c0-.22-.2-.39-.89-.4l-.92,0Z"/><path class="cls-2" d="M132.53,42.88c0-1.13,0-1.33,0-1.56s-.08-.37-.32-.42l-.21,0c-.05,0-.09,0-.09,0s0-.06.12-.06l.81,0h1.66a1.44,1.44,0,0,0,.34,0s0,0,.08,0,0,0,0,.07a2.2,2.2,0,0,0-.06.34c0,.11,0,.25,0,.43s0,.13-.06.13-.06,0-.06-.1a.83.83,0,0,0,0-.24c0-.16-.21-.24-.52-.26-.13,0-.92,0-1,0s0,0,0,.08v2s0,.07,0,.07,1,0,1.15,0,.29,0,.37-.12.05-.07.08-.07,0,0,0,.06,0,.16-.06.4,0,.39,0,.49,0,.11,0,.11-.05-.06-.05-.11a.76.76,0,0,0,0-.21c0-.1-.11-.21-.37-.24s-.92,0-1,0-.05,0-.05.05v.64c0,.24,0,1.08,0,1.24s.06.45.24.52a1.73,1.73,0,0,0,.6.07,2.28,2.28,0,0,0,.65-.07c.23-.07.31-.22.37-.53,0-.08,0-.11.07-.11s0,.06,0,.11-.06.55-.09.7-.11.19-.4.19c-.53,0-.77,0-1.05,0l-.91,0c-.17,0-.35,0-.53,0s-.12,0-.12-.06,0,0,.08,0l.17,0c.15,0,.24-.13.26-.68,0-.28,0-.65,0-1.29Z"/><path class="cls-2" d="M138.39,42.88c0-1.13,0-1.33,0-1.56s-.05-.37-.29-.42l-.25,0c-.05,0-.07,0-.07,0s0-.06.11-.06l.82,0,1,0a3.84,3.84,0,0,1,2.9.83,2.59,2.59,0,0,1,.7,1.84,2.94,2.94,0,0,1-.78,2,2.85,2.85,0,0,1-2.19.83c-.31,0-.7,0-1,0l-.6,0h-.29l-.42,0q-.12,0-.12-.06s0,0,.08,0l.2,0c.14,0,.18-.19.21-.4s0-.88,0-1.57Zm.6.78c0,.77,0,1.44,0,1.58a1.6,1.6,0,0,0,.08.55c.09.13.37.29,1.23.29A2.41,2.41,0,0,0,142,45.4a2.51,2.51,0,0,0,.58-1.73,2.6,2.6,0,0,0-.69-1.82,3,3,0,0,0-2.37-.82,1.86,1.86,0,0,0-.47,0,.12.12,0,0,0-.09.14c0,.25,0,1,0,1.55Z"/><path class="cls-3" d="M24.93,30.34a5,5,0,0,1-1.56-.23c-1.09-.36-1.26-1.77-1.36-2.68l-1.07-9.77-.63-5.72c0-.48-.12-.68-.3-.68s-.28.17-.38.4L12.22,27.51,6.57,15.91l-.19-.38L4.49,11.64c-.12-.29-.22-.38-.37-.38s-.26.22-.29.5L2.05,27.86l0,.3c-.12.93-.17,1.76-.78,2a.9.9,0,0,1-.23.08,3.11,3.11,0,0,1-.76.08c-.12,0-.25,0-.25.14s.18.2.43.2h1l1.15-.05c.2,0,1.49.07,2.42.07.25,0,.38,0,.38-.22s-.1-.12-.25-.12a3.47,3.47,0,0,1-.91-.11c-.38-.07-.68-.28-.68-.91,0-.42,0-.78.05-1.18L4,23.31H4l.11-1.24.51-5.82c.09.22.43,1,.87,1.91l.18.41L8,23.62c.13.25,2.3,4.62,2.95,5.85.48.91.61,1.17.79,1.17s.3-.23.83-1.34L18.82,16l.58,6.3L20,29.2c.06.45.08.83-.09.91s-.18.07-.18.17.12.2.7.25c.94.08,3.81.15,4.37.15.31,0,.38,0,.38-.2S25.06,30.34,24.93,30.34Z"/><path class="cls-3" d="M49,11.26a9.77,9.77,0,0,0-10,9.86c0,4.55,2.88,9.92,9.8,9.92,6.07,0,10.06-4.67,10.06-10.32C58.91,14.84,54.67,11.26,49,11.26Zm.52,18.82c-4.54,0-8.07-3.79-8.07-9.67,0-5.52,3.15-8.29,7.37-8.29,4,0,7.67,3.25,7.67,9.31C56.49,28.77,51.8,30.08,49.52,30.08Z"/><path class="cls-3" d="M80.13,11.61c-.75,0-2.34.07-2.47.07s-1.74-.07-2.88-.07c-.27,0-.37.07-.37.18s.1.17.27.17a4.07,4.07,0,0,1,.79.08c.83.18,1,.58,1.08,1.44s0,1.51,0,5.45v7.29c0,6.51-.78,7.85-2.42,9.51a5.16,5.16,0,0,1-.88.71c-.23.15-.36.23-.36.38s.11.15.18.15a.48.48,0,0,0,.18,0,11,11,0,0,0,1-.63c2-1.42,3.15-2.6,3.68-3.86.76-1.79.76-3.36.76-7.45V18.93c0-3.94,0-4.64,0-5.45s.2-1.39.88-1.47c.23,0,.43,0,.61,0s.28-.05.28-.15S80.41,11.61,80.13,11.61Z"/><path class="cls-3" d="M114.46,30.34a3.21,3.21,0,0,1-1-.16c-.53-.15-1.26-.55-2.17-2.8-1.54-3.84-5.5-14.26-5.88-15.22-.31-.78-.41-.9-.56-.9s-.25.15-.56,1L98.59,27.91c-.46,1.26-1,2.22-2.12,2.37a4.49,4.49,0,0,1-.61.06c-.23,0-.35,0-.35.14s.15.2.48.2c1.18,0,2.57-.07,2.85-.07s1.29.07,1.9.07c.22,0,.45,0,.45-.2s-.08-.14-.33-.14h-.23a.81.81,0,0,1-.91-.74,5.29,5.29,0,0,1,.36-1.69l1.51-4.47a.27.27,0,0,1,.25-.2h5.43c.13,0,.17.05.23.15l2.34,6.21c.15.41,0,.63-.15.68s-.18.08-.18.18.28.15.76.18c1.74,0,3.58,0,4,0s.51,0,.51-.2S114.61,30.34,114.46,30.34Zm-7.52-8h-4.82c-.07,0-.13,0-.07-.17l2.22-6.82c.12-.38.25-.38.37,0l2.4,6.82C107.07,22.26,107.07,22.33,106.94,22.33Z"/><path class="cls-3" d="M143,11.61c-.48,0-2.3.07-2.45.07s-1-.07-1.67-.07c-.25,0-.4.05-.4.15s.15.18.38.25.4.36.4.71a2.4,2.4,0,0,1-.43,1.28c-.5.84-3.71,6.37-4.19,7.43-.45-.74-4.23-7.25-4.64-8a2.18,2.18,0,0,1-.33-1A.52.52,0,0,1,130,12c.23-.1.38-.12.38-.22s-.05-.18-.33-.18c-1,0-1.94.07-2.12.07s-2-.07-2.5-.07c-.23,0-.32.07-.32.18s.12.17.25.17a2.4,2.4,0,0,1,1.08.41,7.08,7.08,0,0,1,1.72,1.86c.88,1.32,4.26,6.87,4.44,7.27a5.33,5.33,0,0,1,.58,2.65v2.17c0,.41,0,1.46-.08,2.52-.05.73-.27,1.29-.78,1.39a3.87,3.87,0,0,1-.76.11c-.15,0-.2.07-.2.14s.13.2.41.2c.75,0,2.34-.07,2.47-.07s1.71.07,3.1.07c.28,0,.4-.07.4-.2s0-.14-.19-.14a11.36,11.36,0,0,1-1.14-.11c-.76-.1-1-.66-1-1.39-.08-1.06-.08-2.11-.08-2.52V24.15a6.08,6.08,0,0,1,.38-2.53,78.86,78.86,0,0,1,4.82-8,4.93,4.93,0,0,1,1.33-1.29A2.46,2.46,0,0,1,143,12c.2,0,.32-.07.32-.2S143.12,11.61,143,11.61Z"/><polygon class="cls-4" points="199 52.69 188.6 52.73 188.57 52.37 186.81 35.69 186.81 35.69 186.81 35.69 186.14 29.41 186.14 29.4 184.12 10.24 183.71 6.37 193.4 4.23 194.12 10.39 194.12 10.39 194.84 17.22 195.85 25.96 195.85 25.98 196.43 30.95 198.37 47.8 199 52.69 199 52.69"/><polygon class="cls-5" points="179.41 52.77 169.52 52.8 167.95 37.02 167.95 37.02 167.95 37.02 167.43 31.74 165.38 10.55 174.97 8.4 174.97 8.4 175.49 13.63 175.61 14.34 175.61 14.34 175.61 14.34 179.41 52.77"/><polygon class="cls-6" points="212.08 0.01 212.08 0.01 212.08 0.01 212.08 0.01 199 52.69 188.6 52.73 188.6 52.73 202.27 2.23 212.08 0.01 212.08 0.01"/><polygon class="cls-7" points="175.61 14.34 167.95 37.02 167.95 37.02 167.41 31.69 174.97 8.4 174.97 8.4 175.53 13.61 175.61 14.34 175.61 14.34"/><polygon class="cls-7" points="194.12 10.39 186.81 35.69 186.81 35.69 186.81 35.69 186.13 29.41 193.4 4.23 194.12 10.39 194.12 10.39"/><path class="cls-8" d="M193.4,4.23,182,43.67l-2.62,9.1h-.79c-1.77,0-6.16,0-9.1,0l6.74-22L183.7,6.37l7.07-1.56Z"/><polygon class="cls-9" points="174.97 8.4 160.6 52.84 150.72 52.87 151.91 49.4 161.86 20.59 162.62 18.38 165.38 10.55 165.38 10.55 171.01 9.3 174.97 8.4"/><path class="cls-10" d="M150.72,52.87l9.89,0,2.49-7.72s-.15,1.42-5.2,4.79C153.45,52.86,150.72,52.87,150.72,52.87Z"/><g class="cls-11"><line class="cls-12" x1="194.12" y1="10.39" x2="195.85" y2="26.02"/><line class="cls-12" x1="175.61" y1="14.34" x2="176.96" y2="28.4"/></g><g class="cls-13"><polyline class="cls-12" points="188.6 52.73 188.57 52.37 186.81 35.69 194.12 10.39"/><polyline class="cls-12" points="175.61 14.34 167.95 37.02 169.52 52.8"/></g><line class="cls-14" x1="193.4" y1="4.23" x2="194.12" y2="10.39"/><line class="cls-14" x1="174.97" y1="8.4" x2="175.61" y2="14.34"/><path class="cls-15" d="M162.62,39.35c-3.08,4.6-6.92,8-10.46,9.66l-.1.05,10.82-31h0l.08,0a5.28,5.28,0,0,1,2,.79C169.3,21.81,168.25,31,162.62,39.35Z"/><path class="cls-16" d="M171,9.3c.59,2.31-5.61,10.3-9.14,11.22l.77-2.21,2.73-7.76h0Z"/><path class="cls-17" d="M205.27,27.51,200.9,45h0L199,52.69h-3.92l-6.47,0h0a64.29,64.29,0,0,1,10-17.7A72.84,72.84,0,0,1,205.27,27.51Z"/><path class="cls-18" d="M195.85,26l6.42-23.79,3.21-.72C207.88,10.64,202.52,22,195.85,26Z"/><path class="cls-19" d="M192.88,37.08l2.06-7.52,7.33-27.33C208.47,5.67,207.33,25.3,192.88,37.08Z"/><path class="cls-20" d="M169.52,52.8l9.89,0L181.64,45s-.51,1.82-4.95,4.79S169.52,52.8,169.52,52.8Z"/><path class="cls-21" d="M182,43.67l-2.62,9.1-9.89,0,6.74-22a69.48,69.48,0,0,1,5,10.71C181.53,42.2,181.79,42.94,182,43.67Z"/><path class="cls-22" d="M193.4,4.23,182,43.67l-2.62,9.1h-.79c-3.53-5.08-3-17.16,1.83-29.94a59,59,0,0,1,10.32-18Z"/><g class="cls-23"><polyline class="cls-12" points="212.08 0.01 199 52.69 188.6 52.73 188.6 52.73"/><polyline class="cls-12" points="193.4 4.23 179.41 52.77 169.52 52.8"/><polyline class="cls-12" points="174.97 8.4 160.6 52.84 150.72 52.87"/></g><g class="cls-13"><polyline class="cls-24" points="169.52 52.8 183.71 6.37 193.4 4.23"/><path class="cls-24" d="M188.6,52.73l1.27-4.65a0,0,0,0,1,0,0l6-22.07,6.42-23.75L212.08,0h0"/><polyline class="cls-25" points="150.72 52.87 165.38 10.55 174.97 8.4 174.97 8.4"/></g></g></g></g></svg>