<svg xmlns="http://www.w3.org/2000/svg" xmlns:xlink="http://www.w3.org/1999/xlink" viewBox="0 0 213.25 71.44"><defs><style>.cls-1{isolation:isolate;}.cls-13,.cls-15,.cls-2,.cls-25,.cls-26{fill:none;}.cls-2{stroke:#83d0f5;stroke-width:0.43px;}.cls-3{fill:#928e8d;}.cls-4{fill:#7e7b7d;}.cls-5{fill:url(#linear-gradient);}.cls-6{fill:url(#linear-gradient-2);}.cls-7{fill:url(#linear-gradient-3);}.cls-8{fill:#5f5c5a;}.cls-9{fill:url(#linear-gradient-4);}.cls-10{fill:url(#linear-gradient-5);}.cls-11,.cls-21{opacity:0.15;}.cls-11,.cls-16,.cls-17,.cls-18,.cls-19,.cls-20,.cls-21,.cls-22,.cls-23{mix-blend-mode:overlay;}.cls-11{fill:url(#radial-gradient);}.cls-12{opacity:0.75;}.cls-13,.cls-15,.cls-25,.cls-26{stroke:#fff;stroke-miterlimit:10;}.cls-13,.cls-15{stroke-width:0.02px;}.cls-14{opacity:0.65;}.cls-15{opacity:0.1;}.cls-16{opacity:0.7;fill:url(#radial-gradient-2);}.cls-17{fill:url(#radial-gradient-3);}.cls-18{fill:url(#radial-gradient-4);}.cls-19,.cls-20{opacity:0.6;}.cls-19{fill:url(#radial-gradient-5);}.cls-20{fill:url(#radial-gradient-6);}.cls-21{fill:url(#radial-gradient-7);}.cls-22{fill:url(#linear-gradient-6);}.cls-23{fill:url(#linear-gradient-7);}.cls-24{opacity:0.06;}.cls-25{stroke-width:0.02px;}.cls-26{stroke-width:0.01px;}</style><linearGradient id="linear-gradient" x1="185.81" y1="36.63" x2="198.06" y2="45.54" gradientTransform="translate(-0.27 -0.1) rotate(-0.21)" gradientUnits="userSpaceOnUse"><stop offset="0.01" stop-color="#9f9c9a"/><stop offset="0.68" stop-color="#e3e2e2"/><stop offset="1" stop-color="#fff"/></linearGradient><linearGradient id="linear-gradient-2" x1="168.51" y1="38.35" x2="179.41" y2="48.43" xlink:href="#linear-gradient"/><linearGradient id="linear-gradient-3" x1="196.26" y1="60.19" x2="196.26" y2="13.36" gradientTransform="translate(-0.27 -0.1) rotate(-0.21)" gradientUnits="userSpaceOnUse"><stop offset="0" stop-color="#551e2e"/><stop offset="0.93" stop-color="#d31036"/></linearGradient><linearGradient id="linear-gradient-4" x1="178.68" y1="60.76" x2="178.68" y2="17.71" gradientTransform="translate(-0.27 -0.1) rotate(-0.21)" gradientUnits="userSpaceOnUse"><stop offset="0" stop-color="#772838"/><stop offset="0.61" stop-color="#b11b2e"/><stop offset="0.96" stop-color="#ce1429"/></linearGradient><linearGradient id="linear-gradient-5" x1="161.34" y1="59.65" x2="161.34" y2="21.99" gradientTransform="translate(-0.27 -0.1) rotate(-0.21)" gradientUnits="userSpaceOnUse"><stop offset="0" stop-color="#8d1c35"/><stop offset="0.53" stop-color="#b71b30"/><stop offset="0.95" stop-color="#d41a2c"/></linearGradient><radialGradient id="radial-gradient" cx="159.36" cy="60.44" r="7.33" gradientTransform="translate(-0.27 -0.1) rotate(-0.21)" gradientUnits="userSpaceOnUse"><stop offset="0" stop-color="#6b6866"/><stop offset="0.3" stop-color="#9b9998"/><stop offset="0.78" stop-color="#e3e2e2"/><stop offset="1" stop-color="#fff"/></radialGradient><radialGradient id="radial-gradient-2" cx="176.81" cy="60.29" r="33.56" gradientUnits="userSpaceOnUse"><stop offset="0" stop-color="#fff"/><stop offset="1" stop-color="#fff" stop-opacity="0"/></radialGradient><radialGradient id="radial-gradient-3" cx="158.93" cy="21.43" r="21.56" gradientUnits="userSpaceOnUse"><stop offset="0" stop-color="#fff" stop-opacity="0"/><stop offset="1" stop-color="#fff"/></radialGradient><radialGradient id="radial-gradient-4" cx="207.26" cy="59.34" r="30.71" gradientTransform="matrix(0.73, -0.69, 0.49, 0.52, 27.6, 170.25)" gradientUnits="userSpaceOnUse"><stop offset="0" stop-color="#78170e"/><stop offset="1" stop-color="#fff" stop-opacity="0"/></radialGradient><radialGradient id="radial-gradient-5" cx="216.76" cy="15.06" r="20.48" gradientTransform="translate(74.39 -150.44) rotate(42.47) scale(1 1.72)" xlink:href="#radial-gradient-2"/><radialGradient id="radial-gradient-6" cx="209.43" cy="51.1" r="29" gradientTransform="matrix(0.81, 0.58, -1, 1.4, 90.1, -142.22)" gradientUnits="userSpaceOnUse"><stop offset="0" stop-color="#fff"/><stop offset="1" stop-color="#fff" stop-opacity="0"/></radialGradient><radialGradient id="radial-gradient-7" cx="179.17" cy="61.61" r="10.74" xlink:href="#radial-gradient"/><linearGradient id="linear-gradient-6" x1="162.97" y1="-13.54" x2="174.48" y2="64.03" gradientTransform="translate(-0.27 -0.1) rotate(-0.21)" xlink:href="#radial-gradient-2"/><linearGradient id="linear-gradient-7" x1="215.6" y1="-29.35" x2="173.63" y2="53.16" gradientTransform="translate(-0.27 -0.1) rotate(-0.21)" xlink:href="#radial-gradient-2"/></defs><g class="cls-1"><g id="Layer_2" data-name="Layer 2"><g id="Laag_1" data-name="Laag 1"><rect class="cls-2" x="0.21" y="0.21" width="212.82" height="71.01"/><path class="cls-3" d="M13.8,53.08c0,.3,0,.32-.09.36a3.33,3.33,0,0,1-1.43.31A3.38,3.38,0,0,1,10.06,53a2.65,2.65,0,0,1-.8-1.93,2.56,2.56,0,0,1,1.12-2.21,3.32,3.32,0,0,1,1.8-.43,5.43,5.43,0,0,1,1,.12,3.09,3.09,0,0,0,.55.06c.06,0,.08,0,.08.06a8.35,8.35,0,0,0-.05,1c0,.11,0,.14-.06.14s0,0-.05-.1a1,1,0,0,0-.14-.44A1.93,1.93,0,0,0,12,48.71a2.15,2.15,0,0,0-1.45.45,2.16,2.16,0,0,0-.66,1.71,2.74,2.74,0,0,0,.71,1.87,2.45,2.45,0,0,0,1.77.72,1.89,1.89,0,0,0,.77-.14.27.27,0,0,0,.13-.24V51.93c0-.54,0-.62-.3-.69l-.23,0s-.06,0-.06,0,0-.06.11-.06l.76,0,.66,0c.08,0,.11,0,.11.06s0,0,0,0l-.17,0c-.18,0-.24.15-.25.38s0,.42,0,.7Z"/><path class="cls-3" d="M17.89,51.71c0,1,0,1.42.15,1.55s.28.15.81.15c.36,0,.65,0,.81-.2a.94.94,0,0,0,.18-.41s0-.08.06-.08,0,0,0,.1a4.73,4.73,0,0,1-.1.67c-.05.16-.07.18-.43.18-.58,0-1.15,0-1.8,0l-.66,0c-.08,0-.11,0-.11,0s0,0,.05,0a.69.69,0,0,0,.2,0c.14,0,.17-.17.2-.37s0-.81,0-1.46V50.51c0-1,0-1.24,0-1.46s-.07-.33-.29-.38l-.23,0s-.05,0-.05,0,0,0,.11,0l.76,0,.73,0c.07,0,.1,0,.1,0s0,0-.05,0l-.22,0c-.2,0-.25.15-.27.38s0,.41,0,1.46Z"/><path class="cls-3" d="M22,51.1a2.62,2.62,0,0,1,2.66-2.64A2.46,2.46,0,0,1,27.29,51a2.65,2.65,0,0,1-2.69,2.76A2.53,2.53,0,0,1,22,51.1Zm4.66.08c0-1.62-1-2.49-2.05-2.49a2,2,0,0,0-2,2.22,2.3,2.3,0,0,0,2.16,2.58C25.39,53.49,26.64,53.14,26.64,51.18Z"/><path class="cls-3" d="M30.31,50.51c0-1,0-1.24,0-1.46s-.07-.33-.29-.38l-.19,0c-.06,0-.09,0-.09,0s0,0,.11,0l.76,0,.73,0c1.11,0,1.35.67,1.35,1A1.68,1.68,0,0,1,32,50.78,1.57,1.57,0,0,1,33.2,52.2a1.54,1.54,0,0,1-1.71,1.47l-.49,0-.41,0-.66,0c-.08,0-.11,0-.11,0s0,0,.1,0l.16,0c.14,0,.17-.18.19-.38a13.69,13.69,0,0,0,0-1.46Zm.53.15c0,.05,0,.06.05.07a1.91,1.91,0,0,0,.41,0c.38,0,.48,0,.62-.17a1.08,1.08,0,0,0,.24-.69c0-.56-.25-1.16-.91-1.16a1.33,1.33,0,0,0-.32,0c-.06,0-.09,0-.09.07Zm0,.71c0,.52,0,1.36,0,1.46,0,.33,0,.43.23.53a1.73,1.73,0,0,0,.59.1.9.9,0,0,0,.95-1A1.62,1.62,0,0,0,32,51.15a1.16,1.16,0,0,0-.56-.19,4.43,4.43,0,0,0-.52,0,0,0,0,0,0-.05.05Z"/><path class="cls-3" d="M36.69,51.66a.07.07,0,0,0-.07.06l-.41,1.19a1.43,1.43,0,0,0-.09.45.22.22,0,0,0,.24.2h.06c.07,0,.09,0,.09,0s-.06,0-.12,0l-.51,0-.76,0c-.09,0-.13,0-.13,0s0,0,.1,0h.16c.31,0,.44-.3.57-.64l1.53-4.19c.08-.22.1-.26.14-.26s.07,0,.15.24,1.16,3,1.57,4.07c.25.6.44.71.58.75a1,1,0,0,0,.27,0s.07,0,.07,0-.06,0-.13,0H38.94c-.13,0-.21,0-.21,0a0,0,0,0,1,.05,0s.08-.08,0-.19L38.2,51.7s0,0-.07,0Zm1.36-.24s0,0,0-.05l-.64-1.82c0-.1-.06-.1-.1,0l-.59,1.82s0,.05,0,.05Z"/><path class="cls-3" d="M43.15,51.71c0,1,0,1.42.14,1.55s.29.15.81.15c.36,0,.66,0,.82-.2a.92.92,0,0,0,.17-.41s0-.08.06-.08,0,0,0,.1a3.61,3.61,0,0,1-.1.67c0,.16-.06.18-.42.18-.58,0-1.15,0-1.81,0l-.66,0c-.07,0-.11,0-.11,0s0,0,.06,0a.69.69,0,0,0,.2,0c.13,0,.17-.17.19-.37a13.69,13.69,0,0,0,0-1.46V50.51c0-1,0-1.24,0-1.46s-.07-.33-.29-.38l-.23,0s-.06,0-.06,0,0,0,.11,0l.76,0,.73,0c.07,0,.11,0,.11,0s0,0-.06,0l-.22,0c-.19,0-.25.15-.26.38s0,.41,0,1.46Z"/><path class="cls-3" d="M55.2,50.69s0,0,0,0v-.14c0-1,0-1.24,0-1.46s-.07-.33-.29-.38l-.23,0s-.05,0-.05,0,0,0,.11,0l.76,0,.66,0c.07,0,.11,0,.11,0s0,0-.06,0l-.17,0c-.18,0-.23.15-.24.38s0,.41,0,1.46V51.7a13.69,13.69,0,0,0,0,1.46c0,.2.06.34.26.37a1.78,1.78,0,0,0,.3,0s.06,0,.06,0,0,0-.11,0l-.83,0-.66,0c-.08,0-.11,0-.11,0s0,0,0,0a.76.76,0,0,0,.21,0c.13,0,.17-.17.19-.37a13.69,13.69,0,0,0,0-1.46V51a0,0,0,0,0,0,0H52.34a0,0,0,0,0,0,0v.71c0,.65,0,1.18,0,1.46s.06.34.26.37a2,2,0,0,0,.31,0s.05,0,.05,0,0,0-.11,0l-.83,0-.66,0c-.07,0-.11,0-.11,0s0,0,.06,0a.69.69,0,0,0,.2,0c.14,0,.17-.17.2-.37s0-.81,0-1.46V50.51c0-1,0-1.24,0-1.46s-.07-.33-.29-.38l-.23,0s-.06,0-.06,0,0,0,.11,0l.76,0,.66,0c.08,0,.11,0,.11,0s0,0-.05,0l-.17,0c-.18,0-.24.15-.25.38s0,.41,0,1.46v.14s0,0,0,0Z"/><path class="cls-3" d="M58.8,51.1a2.62,2.62,0,0,1,2.66-2.64A2.46,2.46,0,0,1,64.11,51a2.65,2.65,0,0,1-2.69,2.76A2.53,2.53,0,0,1,58.8,51.1Zm4.66.08c0-1.62-1-2.49-2.05-2.49a2,2,0,0,0-2,2.22,2.3,2.3,0,0,0,2.16,2.58C62.21,53.49,63.46,53.14,63.46,51.18Z"/><path class="cls-3" d="M67.69,51.71c0,1,0,1.42.15,1.55s.28.15.81.15c.36,0,.65,0,.81-.2a.94.94,0,0,0,.18-.41s0-.08.06-.08,0,0,0,.1a4.73,4.73,0,0,1-.1.67c0,.16-.07.18-.42.18-.58,0-1.16,0-1.81,0l-.66,0c-.08,0-.11,0-.11,0s0,0,0,0l.21,0c.13,0,.16-.17.19-.37s0-.81,0-1.46V50.51c0-1,0-1.24,0-1.46s-.07-.33-.29-.38l-.23,0s0,0,0,0,0,0,.11,0l.76,0,.73,0c.07,0,.1,0,.1,0s0,0,0,0l-.22,0c-.2,0-.25.15-.27.38s0,.41,0,1.46Z"/><path class="cls-3" d="M72.52,50.51c0-1,0-1.24,0-1.46s-.05-.33-.27-.38l-.23,0c-.05,0-.08,0-.08,0s0,0,.11,0l.76,0,.91,0a3.62,3.62,0,0,1,2.71.76A2.44,2.44,0,0,1,77.07,51a2.75,2.75,0,0,1-.73,1.9,2.68,2.68,0,0,1-2,.77c-.29,0-.65,0-.94,0l-.56,0h-.66c-.07,0-.11,0-.11,0s0,0,.07,0a1,1,0,0,0,.19,0c.14,0,.17-.17.2-.37s0-.81,0-1.46Zm.57.73c0,.71,0,1.33,0,1.46a1.64,1.64,0,0,0,.07.51c.09.13.35.27,1.15.27a2.22,2.22,0,0,0,1.6-.62,2.32,2.32,0,0,0,.54-1.61,2.44,2.44,0,0,0-.64-1.7,2.78,2.78,0,0,0-2.21-.76,2.45,2.45,0,0,0-.44,0,.13.13,0,0,0-.08.14v2.27Z"/><path class="cls-3" d="M80.09,50.51c0-1,0-1.24,0-1.46s-.08-.34-.23-.37a.88.88,0,0,0-.21,0s0,0,0,0,0,0,.11,0l.68,0,.66,0c.07,0,.11,0,.11,0s0,0-.06,0l-.16,0c-.19,0-.24.15-.25.38s0,.41,0,1.46V51.7a13.69,13.69,0,0,0,0,1.46c0,.2.06.34.26.37a1.67,1.67,0,0,0,.28,0c.06,0,.08,0,.08,0s0,0-.1,0l-.84,0-.66,0c-.08,0-.11,0-.11,0s0,0,.07,0l.18,0c.13,0,.18-.18.2-.38a13.69,13.69,0,0,0,0-1.46Z"/><path class="cls-3" d="M84.31,51.66c0-2.43,0-1.55,0-2.86,0-.26,0-.34.07-.34s.17.15.24.22L86.77,51c.67.71,1.41,1.54,1.62,1.76l-.07-3.43c0-.43-.06-.58-.26-.64l-.29,0c-.08,0-.1,0-.1,0s.06,0,.14,0l.7,0,.57,0c.07,0,.12,0,.12,0s0,0-.07,0l-.18,0c-.19,0-.23.14-.23.6l0,3.94c0,.45,0,.48-.06.48s-.13-.07-.49-.43c-.07-.07-1-1.06-1.76-1.83s-1.54-1.69-1.76-1.93l.09,3.23c0,.55.08.72.26.78a1.77,1.77,0,0,0,.34,0s.05,0,.05,0,0,0-.12,0c-.38,0-.65,0-.71,0l-.65,0c-.07,0-.11,0-.11,0s0,0,.06,0a1.09,1.09,0,0,0,.27,0c.17-.05.2-.24.2-.86Z"/><path class="cls-3" d="M96.18,53.08c0,.3,0,.32-.09.36a3.33,3.33,0,0,1-1.43.31A3.38,3.38,0,0,1,92.44,53a2.65,2.65,0,0,1-.8-1.93,2.54,2.54,0,0,1,1.12-2.21,3.32,3.32,0,0,1,1.8-.43,5.43,5.43,0,0,1,1,.12,3.08,3.08,0,0,0,.54.06c.07,0,.09,0,.09.06a8.35,8.35,0,0,0,0,1c0,.11,0,.14-.06.14s0,0,0-.1a1.09,1.09,0,0,0-.14-.44,2,2,0,0,0-1.59-.55,2.13,2.13,0,0,0-1.44.45,2.16,2.16,0,0,0-.67,1.71,2.74,2.74,0,0,0,.72,1.87,2.45,2.45,0,0,0,1.77.72,1.81,1.81,0,0,0,.76-.14.26.26,0,0,0,.14-.24V51.93c0-.54,0-.62-.3-.69l-.23,0s-.06,0-.06,0,0-.06.11-.06l.76,0,.66,0c.08,0,.11,0,.11.06s0,0,0,0l-.17,0c-.18,0-.24.15-.25.38s0,.42,0,.7Z"/><path class="cls-3" d="M103.94,51.71c0,1,0,1.42.15,1.55s.29.15.81.15c.36,0,.66,0,.82-.2a1.05,1.05,0,0,0,.17-.41s0-.08.06-.08,0,0,0,.1a3.61,3.61,0,0,1-.1.67c0,.16-.06.18-.42.18-.58,0-1.16,0-1.81,0l-.66,0c-.07,0-.11,0-.11,0s0,0,.06,0a.69.69,0,0,0,.2,0c.13,0,.17-.17.19-.37a13.69,13.69,0,0,0,0-1.46V50.51c0-1,0-1.24,0-1.46s-.06-.33-.29-.38l-.22,0s-.06,0-.06,0,0,0,.11,0l.76,0,.73,0c.07,0,.11,0,.11,0s0,0-.06,0l-.22,0c-.2,0-.25.15-.26.38s0,.41,0,1.46Z"/><path class="cls-3" d="M108.77,50.51c0-1,0-1.24,0-1.46s-.08-.34-.23-.37a.88.88,0,0,0-.21,0s0,0,0,0,0,0,.1,0l.69,0,.66,0c.07,0,.1,0,.1,0s0,0,0,0l-.17,0c-.18,0-.23.15-.25.38s0,.41,0,1.46V51.7c0,.65,0,1.18,0,1.46s.06.34.27.37l.27,0c.06,0,.08,0,.08,0s0,0-.1,0l-.83,0-.67,0c-.07,0-.1,0-.1,0s0,0,.07,0l.18,0c.13,0,.17-.18.2-.38s0-.81,0-1.46Z"/><path class="cls-3" d="M118.24,52.78c0,.25.07.62.36.72a1.39,1.39,0,0,0,.42.06s.08,0,.08,0,0,0-.11,0-.91,0-1.16,0-.19,0-.19-.06,0,0,0,0,0-.12,0-.24l-.32-3.52-1.67,3.54c-.14.3-.16.36-.22.36s-.09-.07-.21-.31-.76-1.5-.79-1.56-.84-1.79-.91-2L113.31,53c0,.11,0,.2,0,.32s.08.22.18.24a.88.88,0,0,0,.24,0s.07,0,.07,0,0,.06-.1.06l-.65,0-.57,0c-.06,0-.11,0-.11,0s0,0,.07,0a.87.87,0,0,0,.2,0c.22,0,.24-.28.27-.56l.48-4.38c0-.08,0-.14.08-.14s.07,0,.1.1l2.06,4.24,2-4.23c0-.06,0-.11.1-.11s.06.06.08.18Z"/><path class="cls-3" d="M121.79,50.51c0-1,0-1.24,0-1.46s-.08-.34-.23-.37l-.2,0s-.06,0-.06,0,0,0,.11,0l.68,0,.66,0c.08,0,.11,0,.11,0s0,0,0,0l-.17,0c-.19,0-.24.15-.25.38s0,.41,0,1.46V51.7a13.69,13.69,0,0,0,0,1.46c0,.2.06.34.26.37a1.78,1.78,0,0,0,.28,0c.06,0,.08,0,.08,0s0,0-.1,0l-.84,0-.66,0c-.07,0-.11,0-.11,0s0,0,.08,0l.17,0c.14,0,.18-.18.2-.38a13.69,13.69,0,0,0,0-1.46Z"/><path class="cls-3" d="M127.67,51.7a13.69,13.69,0,0,0,0,1.46c0,.2.06.34.26.37l.3,0s.06,0,.06,0,0,0-.11,0l-.83,0-.66,0c-.07,0-.11,0-.11,0s0,0,.06,0a.69.69,0,0,0,.2,0c.13,0,.17-.17.19-.37a13.69,13.69,0,0,0,0-1.46V48.85h-1c-.42,0-.58,0-.69.21s-.09.17-.11.21,0,.07-.07.07,0,0,0-.06.13-.65.14-.7.05-.13.07-.13a1.22,1.22,0,0,0,.3.08l.53,0h2.53a2.59,2.59,0,0,0,.48,0l.19,0s0,0,0,.08c0,.2,0,.67,0,.74s0,.09-.05.09,0,0,0-.12,0,0,0-.07c0-.2-.18-.36-.83-.37h-.85Z"/><path class="cls-3" d="M132.38,50.51c0-1,0-1.24,0-1.46s-.07-.33-.29-.38l-.2,0s-.09,0-.09,0,0,0,.11,0l.76,0h1.55a1.27,1.27,0,0,0,.31,0l.07,0s0,0,0,.06a2.67,2.67,0,0,0-.05.32c0,.1,0,.23,0,.4s0,.12-.06.12,0,0,0-.09a.65.65,0,0,0,0-.22c-.05-.16-.19-.22-.49-.25l-.92,0s0,0,0,.07v1.86s0,.06,0,.06h1.07c.18,0,.27,0,.34-.11s0-.07.08-.07,0,0,0,.05,0,.16,0,.38,0,.36,0,.46,0,.1-.05.1,0,0,0-.11a.63.63,0,0,0,0-.19c0-.1-.11-.19-.35-.22s-.85,0-1,0a0,0,0,0,0,0,0v.6c0,.23,0,1,0,1.15s.05.43.22.49a1.56,1.56,0,0,0,.56.06,2.07,2.07,0,0,0,.61-.06c.21-.06.29-.21.34-.5,0-.07,0-.1.06-.1s0,.06,0,.1a5.09,5.09,0,0,1-.09.66c0,.17-.1.17-.36.17-.5,0-.72,0-1,0l-.85,0c-.16,0-.32,0-.5,0s-.1,0-.1,0,0,0,.07,0l.15,0c.15,0,.23-.13.25-.64,0-.26,0-.6,0-1.2Z"/><path class="cls-3" d="M137.83,50.51c0-1,0-1.24,0-1.46s0-.33-.27-.38l-.23,0s-.08,0-.08,0,0,0,.11,0l.76,0,.91,0a3.61,3.61,0,0,1,2.71.76,2.44,2.44,0,0,1,.65,1.72,2.75,2.75,0,0,1-.73,1.9,2.68,2.68,0,0,1-2,.77c-.29,0-.65,0-.94,0l-.56,0h-.66c-.07,0-.11,0-.11,0s0,0,.07,0a1,1,0,0,0,.19,0c.14,0,.17-.17.2-.37s0-.81,0-1.46Zm.57.73c0,.71,0,1.33,0,1.46a1.64,1.64,0,0,0,.07.51c.09.13.35.27,1.15.27a2.26,2.26,0,0,0,1.61-.62,2.37,2.37,0,0,0,.53-1.61,2.44,2.44,0,0,0-.64-1.7,2.77,2.77,0,0,0-2.21-.76,2.45,2.45,0,0,0-.44,0,.13.13,0,0,0-.08.14v2.27Z"/><path class="cls-4" d="M32.23,38.83a4.73,4.73,0,0,1-1.45-.21c-1-.33-1.18-1.65-1.27-2.49l-1-9.09-.59-5.33c0-.45-.11-.64-.28-.64s-.26.17-.35.38L20.4,36.2,15.15,25.41,15,25.05l-1.76-3.62c-.12-.26-.21-.36-.35-.36s-.24.22-.26.48l-1.66,15,0,.28c-.11.87-.16,1.64-.73,1.88a.52.52,0,0,1-.21.07,3.06,3.06,0,0,1-.71.07c-.12,0-.23.05-.23.14s.16.19.4.19H10l.31,0,1.07,0c.19,0,1.39.07,2.25.07.24,0,.36,0,.36-.21s-.1-.12-.24-.12a3.6,3.6,0,0,1-.84-.09c-.36-.07-.64-.26-.64-.85,0-.4,0-.73.05-1.1l.39-4.49h0l.1-1.15.47-5.41c.08.19.4.89.81,1.77l.17.38c.89,1.92,2.06,4.43,2.2,4.71s2.13,4.29,2.74,5.44c.45.85.57,1.08.73,1.08s.28-.21.77-1.24l5.83-12.36.54,5.87.59,6.39c0,.43.07.78-.1.85s-.16.07-.16.16.11.19.65.24c.87.07,3.55.14,4.07.14.28,0,.35,0,.35-.19S32.35,38.83,32.23,38.83Z"/><path class="cls-4" d="M54.63,21.07a9.1,9.1,0,0,0-9.26,9.19c0,4.23,2.68,9.23,9.12,9.23,5.66,0,9.37-4.35,9.37-9.61C63.86,24.41,59.91,21.07,54.63,21.07Zm.49,17.53c-4.23,0-7.51-3.53-7.51-9,0-5.14,2.93-7.72,6.86-7.72,3.71,0,7.13,3,7.13,8.66C61.6,37.38,57.24,38.6,55.12,38.6Z"/><path class="cls-4" d="M83.61,21.4c-.7,0-2.18.07-2.3.07s-1.62-.07-2.68-.07c-.26,0-.35.07-.35.17s.09.16.26.16a3.48,3.48,0,0,1,.73.07c.77.17,1,.54,1,1.34s0,1.41,0,5.08V35c0,6.06-.73,7.31-2.26,8.86a4.43,4.43,0,0,1-.82.65c-.22.14-.33.22-.33.36s.1.14.16.14a.38.38,0,0,0,.17,0,9.65,9.65,0,0,0,.92-.59,8.81,8.81,0,0,0,3.42-3.59c.71-1.67.71-3.12.71-6.93V28.22c0-3.67,0-4.32,0-5.08s.18-1.29.82-1.36a4,4,0,0,1,.56-.05c.14,0,.26,0,.26-.14S83.87,21.4,83.61,21.4Z"/><path class="cls-4" d="M115.56,38.83a3,3,0,0,1-.91-.14c-.5-.14-1.18-.52-2-2.61-1.43-3.57-5.12-13.27-5.48-14.16-.28-.73-.37-.85-.51-.85s-.24.15-.52.92l-5.33,14.59c-.42,1.17-.9,2.06-2,2.2a3.88,3.88,0,0,1-.57,0c-.21,0-.33.05-.33.14s.14.19.45.19c1.1,0,2.39-.07,2.66-.07s1.19.07,1.76.07c.21,0,.42,0,.42-.19s-.07-.14-.31-.14h-.21c-.4,0-.84-.21-.84-.68a4.7,4.7,0,0,1,.33-1.57l1.4-4.16a.25.25,0,0,1,.24-.19h5.05a.21.21,0,0,1,.21.14l2.18,5.78c.15.38,0,.59-.14.63s-.16.07-.16.17.26.14.7.16c1.62,0,3.34,0,3.69,0s.47,0,.47-.19S115.7,38.83,115.56,38.83Zm-7-7.44h-4.49c-.07,0-.12-.05-.07-.17l2.06-6.34c.12-.35.24-.35.35,0l2.24,6.34C108.68,31.31,108.68,31.39,108.57,31.39Z"/><path class="cls-4" d="M142.08,21.4c-.45,0-2.14.07-2.28.07s-.94-.07-1.55-.07c-.24,0-.38.05-.38.15s.14.16.35.23.38.33.38.66a2.24,2.24,0,0,1-.4,1.19c-.47.78-3.46,5.93-3.9,6.91-.42-.68-3.94-6.74-4.32-7.42a2,2,0,0,1-.31-.92.48.48,0,0,1,.31-.42c.21-.09.35-.12.35-.21s-.05-.17-.3-.17c-.92,0-1.81.07-2,.07s-1.88-.07-2.33-.07c-.21,0-.31.07-.31.17s.12.16.24.16a2.32,2.32,0,0,1,1,.38,6.47,6.47,0,0,1,1.59,1.74c.82,1.22,4,6.39,4.14,6.76a4.94,4.94,0,0,1,.54,2.47v2c0,.38,0,1.37-.07,2.35-.05.68-.26,1.2-.73,1.3a4.18,4.18,0,0,1-.71.09c-.14,0-.18.07-.18.14s.12.19.37.19c.71,0,2.19-.07,2.3-.07s1.6.07,2.89.07c.26,0,.38-.07.38-.19s-.05-.14-.19-.14-.73,0-1.06-.09c-.7-.1-.91-.62-1-1.3-.07-1-.07-2-.07-2.35v-2a5.66,5.66,0,0,1,.35-2.35,75.4,75.4,0,0,1,4.49-7.47,4.41,4.41,0,0,1,1.24-1.2,2.33,2.33,0,0,1,1.09-.33c.18,0,.3-.07.3-.18S142.24,21.4,142.08,21.4Z"/><polygon class="cls-5" points="194.87 59.64 185.19 59.68 185.17 59.34 183.52 43.82 183.52 43.82 183.52 43.82 182.91 37.98 182.91 37.96 181.02 20.13 180.64 16.52 189.66 14.54 190.33 20.27 190.33 20.27 191 26.63 191.94 34.76 191.94 34.78 192.48 39.4 194.29 55.09 194.87 59.64 194.87 59.64"/><polygon class="cls-6" points="176.64 59.71 167.43 59.74 165.97 45.06 165.97 45.06 165.97 45.06 165.49 40.14 163.58 20.42 172.5 18.42 172.5 18.42 172.99 23.29 173.1 23.95 173.1 23.95 173.1 23.95 176.64 59.71"/><polygon class="cls-7" points="207.04 10.61 207.04 10.61 207.04 10.61 207.04 10.61 194.87 59.64 185.19 59.68 185.19 59.68 197.92 12.67 207.04 10.61 207.04 10.61"/><polygon class="cls-8" points="173.1 23.95 165.97 45.06 165.97 45.06 165.47 40.09 172.5 18.42 172.5 18.42 173.03 23.27 173.1 23.95 173.1 23.95"/><polygon class="cls-8" points="190.33 20.27 183.52 43.82 183.52 43.82 183.52 43.82 182.89 37.98 189.66 14.54 190.33 20.27 190.33 20.27"/><path class="cls-9" d="M189.66,14.54l-10.58,36.7-2.44,8.47h-.74l-8.47,0,6.27-20.52,6.94-22.7,6.57-1.44Z"/><polygon class="cls-10" points="172.5 18.42 159.14 59.77 149.93 59.81 151.05 56.58 160.3 29.77 161.01 27.71 163.58 20.42 163.58 20.42 168.82 19.26 172.5 18.42"/><path class="cls-11" d="M149.93,59.81l9.21,0,2.32-7.18s-.14,1.32-4.84,4.45C152.47,59.8,149.93,59.81,149.93,59.81Z"/><g class="cls-12"><line class="cls-13" x1="190.33" y1="20.27" x2="191.94" y2="34.81"/><line class="cls-13" x1="173.1" y1="23.95" x2="174.36" y2="37.03"/></g><g class="cls-14"><polyline class="cls-13" points="185.19 59.68 185.17 59.34 183.52 43.82 190.33 20.27"/><polyline class="cls-13" points="173.1 23.95 165.97 45.06 167.43 59.74"/></g><line class="cls-15" x1="189.66" y1="14.54" x2="190.33" y2="20.27"/><line class="cls-15" x1="172.5" y1="18.42" x2="173.1" y2="23.95"/><path class="cls-16" d="M161,47.22a25.78,25.78,0,0,1-9.75,9l-.09,0,10.07-28.83h.08a4.83,4.83,0,0,1,1.85.74C167.22,30.9,166.26,39.42,161,47.22Z"/><path class="cls-17" d="M168.82,19.26c.56,2.14-5.22,9.58-8.5,10.44l.72-2.06,2.54-7.22h0Z"/><path class="cls-18" d="M200.71,36.2l-4.07,16.28h0l-1.77,7.16h-3.66l-6,0h0a59.93,59.93,0,0,1,9.3-16.48A67,67,0,0,1,200.71,36.2Z"/><path class="cls-19" d="M191.94,34.81l6-22.14,3-.67C203.13,20.5,198.15,31.09,191.94,34.81Z"/><path class="cls-20" d="M189.17,45.11l1.92-7,6.83-25.44C203.69,15.88,202.62,34.15,189.17,45.11Z"/><path class="cls-21" d="M167.43,59.74l9.21,0,2.07-7.19s-.47,1.69-4.61,4.46S167.43,59.74,167.43,59.74Z"/><path class="cls-22" d="M179.08,51.24l-2.44,8.47-9.21,0,6.28-20.52a64.89,64.89,0,0,1,4.65,10C178.61,49.87,178.85,50.56,179.08,51.24Z"/><path class="cls-23" d="M189.66,14.54l-10.58,36.7-2.44,8.47h-.74c-3.28-4.72-2.76-16,1.71-27.86a54.75,54.75,0,0,1,9.6-16.77Z"/><g class="cls-24"><polyline class="cls-13" points="207.04 10.61 194.87 59.64 185.19 59.68 185.19 59.68"/><polyline class="cls-13" points="189.66 14.54 176.64 59.71 167.43 59.74"/><polyline class="cls-13" points="172.5 18.42 159.14 59.77 149.93 59.81"/></g><g class="cls-14"><polyline class="cls-25" points="167.43 59.74 180.64 16.52 189.66 14.54"/><path class="cls-25" d="M185.19,59.68l1.18-4.33v0l5.56-20.54,6-22.11,9.13-2.06h0"/><polyline class="cls-26" points="149.93 59.81 163.58 20.42 172.5 18.42 172.5 18.42"/></g></g></g></g></svg>