<svg height="512pt" viewBox="0 0 512 512" width="512pt" xmlns="http://www.w3.org/2000/svg"><path d="m327.878906 272.988281h15.996094v15.09375h-15.996094zm0 0"/><path d="m167.9375 272.988281h15.996094v15.09375h-15.996094zm0 0"/><path d="m263.453125 176.574219h-15.09375v24.4375h-47.984375v95.066406h95.964844v64.875h-80.867188v-40.433594h-15.097656v55.53125h47.984375v24.441407h15.09375v-24.441407h47.984375v-95.066406h-95.964844v-64.875h80.867188v40.433594h15.097656v-55.53125h-47.984375zm0 0"/><path d="m79.523438 432.480469h-15.097657v47.53125h63.527344v-15.09375h-48.429687zm0 0"/><path d="m175.933594 464.917969h15.996094v15.09375h-15.996094zm0 0"/><path d="m431.84375 464.917969h15.992188v15.09375h-15.992188zm0 0"/><path d="m407.402344 288.53125c0-83.535156-67.960938-151.496094-151.496094-151.496094s-151.496094 67.960938-151.496094 151.496094 67.960938 151.496094 151.496094 151.496094c43.035156 0 84.191406-18.402344 112.914062-50.492188l-11.246093-10.070312c-25.863281 28.894531-62.917969 45.46875-101.667969 45.46875-75.210938 0-136.398438-61.191406-136.398438-136.402344s61.1875-136.398438 136.398438-136.398438 136.398438 61.1875 136.398438 136.398438c0 26.976562-7.859376 53.054688-22.726563 75.417969l12.570313 8.359375c16.519531-24.847656 25.253906-53.816406 25.253906-83.777344zm0 0"/><path d="m359.867188 272.988281h15.996093v15.09375h-15.996093zm0 0"/><path d="m135.949219 272.988281h15.996093v15.09375h-15.996093zm0 0"/><path d="m167.9375 241h15.996094v15.09375h-15.996094zm0 0"/><path d="m167.9375 304.976562h15.996094v15.09375h-15.996094zm0 0"/><path d="m327.878906 304.976562h15.996094v15.09375h-15.996094zm0 0"/><path d="m327.878906 241h15.996094v15.09375h-15.996094zm0 0"/><path d="m47.53125 136.136719h112.410156v-15.09375h-90.828125l78.5-43.609375-7.332031-13.195313-107.84375 59.910157v372.757812h-32.4375v15.09375h191.929688v-15.09375h-144.398438zm0 0"/><path d="m143.945312 464.917969h15.996094v15.09375h-15.996094zm0 0"/><path d="m431.84375 432.929688h15.992188v15.09375h-15.992188zm0 0"/><path d="m479.375 496.90625v-372.757812l-63.976562-35.507813v-59.140625l-20.414063-20.417969h-58.660156v35.589844l-80.417969-44.671875-91.632812 50.90625 7.332031 13.195312 84.300781-46.835937 95.515625 53.054687v-14.152343h48.878906v41.359375l42.375 23.515625h-90.804687v15.09375h112.40625v360.769531h-248.355469v15.09375h295.890625v-15.09375zm-127.953125-455.835938v-16.890624h37.308594l11.570312 11.574218v5.320313h-48.878906zm0 0"/></svg>