<svg height="466pt" viewBox="-34 0 466 466.42004" width="466pt" xmlns="http://www.w3.org/2000/svg" xmlns:xlink="http://www.w3.org/1999/xlink"><linearGradient id="lg1"><stop offset=".322" stop-color="#a163f5"/><stop offset=".466" stop-color="#b074ee"/><stop offset=".752" stop-color="#d8a1dd"/><stop offset=".898" stop-color="#efbad3"/></linearGradient><linearGradient id="linear0" gradientUnits="userSpaceOnUse" x1="86.610124" x2="86.610124" xlink:href="#lg1" y1="447.876017" y2="7.712017"/><linearGradient id="linear1" gradientUnits="userSpaceOnUse" x1="311.490124" x2="311.490124" xlink:href="#lg1" y1="447.876017" y2="7.712017"/><linearGradient id="linear2" gradientUnits="userSpaceOnUse" x1="195.400124" x2="195.400124" xlink:href="#lg1" y1="447.876017" y2="7.712017"/><linearGradient id="linear4" gradientUnits="userSpaceOnUse" x1="237.400124" x2="237.400124" xlink:href="#lg1" y1="447.876017" y2="7.712017"/><linearGradient id="linear7" gradientUnits="userSpaceOnUse" x1="152.400124" x2="152.400124" xlink:href="#lg1" y1="447.876017" y2="7.712017"/><linearGradient id="linear8" gradientUnits="userSpaceOnUse" x1="198.877124" x2="198.877124" xlink:href="#lg1" y1="447.876017" y2="7.712017"/><path d="m169.933594 392.757812-.671875-11.582031c-.007813-.164062-.027344-.328125-.050781-.488281-3.289063-23.730469-19.625-43.601562-42.269532-51.421875l-3.761718-1.308594c-5.035157-1.761719-9.609376-4.632812-13.386719-8.398437l-18.066407-18.070313-6.167968-20.863281c-3.136719-11.578125-12.921875-20.140625-24.8125-21.707031l-.792969-2.648438c-.015625-.046875-.03125-.097656-.046875-.144531-3-9.148438-12.6875-15.148438-22.777344-14.910156l-.027344-.097656c-4.113281-13.804688-18.359374-21.929688-32.335937-18.441407-3.082031.765625-5.035156 3.796875-4.453125 6.921875l20.046875 107.898438c.054687.277344.125.554687.214844.824218 4.796875 14.101563 13.980469 26.304688 26.207031 34.816407l43.796875 30.167969c.105469.074218.210937.144531.324219.207031 2.78125 1.660156 4.867187 4.273437 5.871094 7.351562l3.320312 44.835938c.175781 2.40625 1.78125 4.472656 4.070312 5.242187l.898438.300782c19.953125 6.753906 41.546875 6.902343 61.585938.429687l2.203124-.703125c2.480469-.796875 4.164063-3.105469 4.164063-5.710938v-25.171874c-.109375-11.71875-1.058594-23.414063-2.839844-35-.117187-.765626-.199219-1.550782-.242187-2.328126zm-95.949219-108.957031c.015625.050781.03125.101563.046875.15625l1.265625 4.285157c-2.042969-.882813-4.175781-1.546876-6.359375-1.984376l-4.105469-13.707031c4.515625 2.269531 7.847657 6.363281 9.152344 11.25zm-25.5-24 7.933594 26.464844c-1.824219.355469-3.613281.867187-5.351563 1.535156l-10.238281-34.214843c3.5625.867187 6.625 3.160156 7.652344 6.21875zm112.527344 191.054688c-16.074219 4.777343-33.195313 4.75-49.253907-.074219l-3.070312-41.460938c-.03125-.402343-.101562-.800781-.210938-1.191406-1.734374-6.179687-5.753906-11.472656-11.246093-14.808594l-43.625-30.058593c-9.988281-6.953125-17.523438-16.890625-21.527344-28.386719l-18.738281-100.859375c5.800781.808594 10.59375 4.933594 12.261718 10.546875l14.019532 46.855469.953125 3.089843c-.152344.148438-.304688.300782-.457031.449219-1.160157 1.160157-1.792969 2.742188-1.753907 4.378907.035157 1.636718.742188 3.191406 1.953125 4.292968l21.9375 20.039063c6.332032 5.785156 12.121094 12.136719 17.300782 18.972656 2.007812 2.613281 5.75 3.117187 8.378906 1.128906 2.628906-1.992187 3.160156-5.730469 1.1875-8.371093-5.617188-7.421876-11.898438-14.3125-18.769532-20.589844l-16.539062-15.109375c7.644531-3.789063 16.855469-2.28125 22.898438 3.742187l24.601562 24.601563c5.054688 5.042969 11.179688 8.886719 17.921875 11.242187l3.765625 1.3125c18.3125 6.320313 31.550781 22.347656 34.300781 41.523438l.660157 11.328125c.0625 1.113281.175781 2.234375.332031 3.332031 1.699219 11.019531 2.609375 22.148438 2.722656 33.296875zm0 0" fill="url(#linear0)"/><path d="m393.335938 222.675781c-13.976563-3.488281-28.226563 4.640625-32.335938 18.445313l-.027344.101562c-10.089844-.238281-19.785156 5.761719-22.78125 14.914063-.015625.046875-.027344.097656-.042968.144531l-.792969 2.644531c-11.894531 1.570313-21.679688 10.128907-24.8125 21.710938l-6.164063 20.855469-18.070312 18.070312c-3.777344 3.765625-8.351563 6.636719-13.382813 8.398438l-3.765625 1.3125c-22.644531 7.820312-38.976562 27.691406-42.269531 51.417968-.023437.160156-.039063.324219-.050781.488282l-.667969 11.582031c-.046875.773437-.125 1.558593-.234375 2.332031-1.78125 11.582031-2.734375 23.28125-2.84375 35v25.167969c-.003906 2.566406 1.628906 4.851562 4.058594 5.679687 20.25 6.867188 42.171875 7.015625 62.511718.425782l1.230469-.398438c2.265625-.742188 3.882813-2.753906 4.109375-5.128906l4.308594-44.90625c1-3.105469 3.09375-5.742188 5.894531-7.410156.109375-.066407.21875-.136719.324219-.207032l43.800781-30.179687c12.21875-8.511719 21.394531-20.710938 26.191407-34.808594.089843-.269531.164062-.542969.214843-.824219l20.050781-107.898437c.582032-3.125-1.367187-6.164063-4.453124-6.929688zm-43.71875 37.128907c1.03125-3.058594 4.09375-5.351563 7.65625-6.21875l-10.238282 34.21875c-1.734375-.664063-3.523437-1.179688-5.347656-1.535157zm-25.5 24c1.304687-4.886719 4.636718-8.980469 9.15625-11.25l-4.109376 13.710937c-2.183593.4375-4.3125 1.101563-6.359374 1.984375l1.269531-4.289062c.011719-.058594.027343-.109376.039062-.160157zm41.902343 51.070312c-4 11.492188-11.527343 21.425781-21.511719 28.378906l-43.640624 30.070313c-5.488282 3.332031-9.507813 8.625-11.246094 14.808593-.097656.34375-.164063.699219-.199219 1.058594l-3.984375 41.539063c-15.785156 4.585937-32.542969 4.628906-48.347656.121093v-20.765624c.113281-11.152344 1.023437-22.277344 2.722656-33.300782.15625-1.097656.269531-2.222656.332031-3.328125l.65625-11.328125c2.753907-19.175781 15.992188-35.203125 34.300781-41.523437l3.765626-1.3125c6.742187-2.355469 12.867187-6.199219 17.925781-11.242188l24.605469-24.605469c6.039062-6.03125 15.257812-7.539062 22.90625-3.746093l-16.546876 15.109375c-6.871093 6.277344-13.152343 13.167968-18.773437 20.589844-2 2.640624-1.476563 6.402343 1.164063 8.402343 2.644531 2 6.40625 1.480469 8.40625-1.160156 5.179687-6.839844 10.96875-13.1875 17.300781-18.972656l21.9375-20.039063c1.210937-1.101562 1.914062-2.65625 1.953125-4.292968.039062-1.636719-.59375-3.21875-1.753906-4.378907-.152344-.152343-.304688-.300781-.460938-.449219l.976562-3.144531 14-46.796875c1.667969-5.617187 6.460938-9.738281 12.261719-10.542968zm0 0" fill="url(#linear1)"/><path d="m195.398438 236.492188c-3.3125 0-6 2.6875-6 6v19.757812c0 3.3125 2.6875 6 6 6 3.316406 0 6-2.6875 6-6v-19.757812c0-3.3125-2.683594-6-6-6zm0 0" fill="url(#linear2)"/><path d="m195.398438 278.199219c-3.3125 0-6 2.683593-6 6v33.089843c0 3.3125 2.6875 6 6 6 3.316406 0 6-2.6875 6-6v-33.089843c0-3.316407-2.683594-6-6-6zm0 0" fill="url(#linear2)"/><g fill="url(#linear4)"><path d="m243.398438 212.492188c0-3.3125-2.683594-6-6-6-3.3125 0-6 2.6875-6 6v9.757812c0 3.3125 2.6875 6 6 6 3.316406 0 6-2.6875 6-6zm0 0"/><path d="m237.398438 286.261719c-3.3125 0-6 2.6875-6 6v25.027343c0 3.3125 2.6875 6 6 6 3.316406 0 6-2.6875 6-6v-25.027343c0-3.3125-2.683594-6-6-6zm0 0"/><path d="m243.398438 243.199219c0-3.316407-2.683594-6-6-6-3.3125 0-6 2.683593-6 6v28c0 3.3125 2.6875 6 6 6 3.316406 0 6-2.6875 6-6zm0 0"/></g><path d="m158.398438 255.25v-42.757812c0-3.3125-2.683594-6-6-6-3.3125 0-6 2.6875-6 6v42.757812c0 1.710938.734374 3.339844 2.015624 4.472656-1.28125 1.136719-2.015624 2.765625-2.015624 4.476563v18.050781c0 3.3125 2.6875 6 6 6 3.316406 0 6-2.6875 6-6v-18.050781c0-1.710938-.730469-3.339844-2.011719-4.476563 1.28125-1.132812 2.011719-2.761718 2.011719-4.472656zm0 0" fill="url(#linear7)"/><path d="m92.175781 89.683594h25.253907v96.316406c0 3.3125 2.6875 6 6 6h150.902343c3.3125 0 6-2.6875 6-6v-96.316406h25.246094c2.597656 0 4.902344-1.671875 5.703125-4.144532.804688-2.46875-.074219-5.179687-2.171875-6.707031l-106.703125-77.683593c-2.101562-1.53125-4.957031-1.53125-7.058594 0l-106.703125 77.683593c-2.097656 1.527344-2.976562 4.238281-2.171875 6.707031.804688 2.472657 3.105469 4.144532 5.703125 4.144532zm106.703125-76.261719 88.265625 64.261719h-12.820312c-3.3125 0-6 2.6875-6 6v96.316406h-138.898438v-96.316406c0-3.3125-2.6875-6-6-6h-12.816406zm0 0" fill="url(#linear8)"/><path d="m198.878906 102.027344c14.359375 0 26-11.640625 26-26s-11.640625-26-26-26-26 11.640625-26 26c.015625 14.351562 11.644532 25.980468 26 26zm0-40c7.730469 0 14 6.265625 14 14 0 7.730468-6.269531 14-14 14-7.734375 0-14-6.269532-14-14 .007813-7.730469 6.269532-13.992188 14-14zm0 0" fill="url(#linear8)"/></svg>