<svg height="411pt" viewBox="0 -9 411.9973 411" width="411pt" xmlns="http://www.w3.org/2000/svg" xmlns:xlink="http://www.w3.org/1999/xlink"><linearGradient id="linear0" gradientUnits="userSpaceOnUse" x1="205.99865" x2="205.99865" y1="438.991667" y2="-1.172333"><stop offset=".322" stop-color="#a163f5"/><stop offset=".466" stop-color="#b074ee"/><stop offset=".752" stop-color="#d8a1dd"/><stop offset=".898" stop-color="#efbad3"/></linearGradient><g fill="url(#linear0)"><path d="m123.027344 196.046875c-24.839844 31.734375-29.398438 74.859375-11.75 111.089844 17.652344 36.226562 54.421875 59.214843 94.722656 59.21875 49.273438-.003907 91.96875-34.160157 102.785156-82.230469 10.820313-48.074219-13.128906-97.226562-57.652344-118.335938-44.523437-21.109374-97.730468-8.542968-128.105468 30.257813zm176.332031 64.945313c-.058594 51.539062-41.824219 93.304687-93.359375 93.363281-51.5625 0-93.363281-41.800781-93.363281-93.363281s41.800781-93.363282 93.363281-93.363282c51.535156.058594 93.300781 41.824219 93.359375 93.363282zm0 0"/><path d="m149.941406 248.949219c-2.152344-2.519531-5.941406-2.820313-8.460937-.667969s-2.816407 5.941406-.664063 8.460938l36.417969 42.648437c2.117187 2.480469 5.824219 2.816406 8.351563.757813l84.820312-69.007813c2.570312-2.089844 2.957031-5.871094.867188-8.441406-2.089844-2.570313-5.871094-2.957031-8.441407-.867188l-80.273437 65.3125zm0 0"/><path d="m409.53125 147.253906-41.132812-29.945312v-69.824219c0-3.3125-2.6875-6-6-6h-42.230469c-3.3125 0-6 2.6875-6 6v30.34375l-104.636719-76.179687c-2.105469-1.53125-4.957031-1.53125-7.0625 0l-200 145.605468c-2.101562 1.53125-2.976562 4.238282-2.175781 6.707032.804687 2.472656 3.109375 4.144531 5.707031 4.144531h52.578125v230.226562c0 3.3125 2.6875 6 6 6h282.839844c3.3125 0 6-2.6875 6-6v-230.226562h52.582031c2.597656 0 4.898438-1.671875 5.703125-4.144531.804687-2.46875-.074219-5.175782-2.171875-6.707032zm-83.363281-93.769531h30.230469v55.085937l-30.230469-22.003906zm21.25 92.621094c-3.3125 0-6 2.6875-6 6v230.226562h-270.839844v-230.226562c0-3.3125-2.683594-6-6-6h-40.144531l181.566406-132.1875 181.5625 132.1875zm0 0"/></g></svg>