<svg id="Capa_1" enable-background="new 0 0 512 512" height="512" viewBox="0 0 512 512" width="512" xmlns="http://www.w3.org/2000/svg"><g><path d="m342.248 40c-23.297 0-42.25 18.953-42.25 42.25v40.11c0 20.755 16.885 37.64 37.64 37.64 7.361 0 17.419-2.954 23.57-11.243 3.944-5.315 7.673-14.87 3.033-30.197-2.039-6.756-2.091-13.399-.146-19.218l6.621-19.865c6.473-19.449-7.975-39.477-28.468-39.477zm9.493 33.158-6.617 19.853c-3.261 9.757-3.271 20.59-.027 31.337 1.741 5.753 1.76 10.189.051 12.491-1.915 2.581-6.17 3.162-7.51 3.162-9.727 0-17.64-7.914-17.64-17.64v-40.111c0-12.269 9.981-22.25 22.25-22.25 6.84 0 11.648 6.687 9.493 13.158z"/><path d="m390.788 168.757c6.151 8.289 16.209 11.243 23.57 11.243 20.755 0 37.64-16.885 37.64-37.64v-40.11c0-23.297-18.953-42.25-42.25-42.25-20.496 0-34.94 20.028-28.468 39.482l6.623 19.868c1.942 5.811 1.891 12.454-.146 19.203-4.642 15.334-.913 24.889 3.031 30.204zm18.96-88.757c12.269 0 22.25 9.981 22.25 22.25v40.11c0 9.727-7.913 17.64-17.64 17.64-1.34 0-5.595-.581-7.51-3.162-1.709-2.302-1.69-6.738.053-12.499 3.241-10.739 3.231-21.573-.026-31.322l-6.619-19.856c-2.158-6.482 2.658-13.161 9.492-13.161z"/><circle cx="381.998" cy="10" r="10"/><path d="m481.998 0h-55c-5.522 0-10 4.477-10 10s4.478 10 10 10h55c5.514 0 10 4.486 10 10v160c0 5.514-4.486 10-10 10h-100c-5.522 0-10 4.477-10 10v15.858l-22.929-22.929c-1.876-1.875-4.419-2.929-7.071-2.929h-60c-5.514 0-10-4.486-10-10v-160c0-5.514 4.486-10 10-10h55c5.522 0 10-4.477 10-10s-4.478-10-10-10h-55c-16.542 0-30 13.458-30 30v66.214c-25.713-5.24-52.171-5.615-78.835-1.073-87.001 14.778-156.087 85.432-170.211 171.151-21.66 131.252 78.85 245.703 207.038 245.708.003 0 .007.001.01.001.005 0 .009-.001.014-.001 107.968-.008 196.261-82.47 208.432-184.131 4.452-37.184-.752-74.154-15.063-107.869h78.615c16.542 0 30-13.458 30-30v-160c0-16.542-13.458-30-30-30zm-366.361 136.828c.386 12.435 2.1 22.064 5.191 29.16 6.207 14.271 21.365 22.069 33.545 28.335 4.426 2.277 10.841 5.577 13.205 7.772-3.056 5.484-8.399 11.154-13.575 16.647-9.332 9.902-18.98 20.142-17.006 32.337 2.216 13.666 13.182 19.138 21.189 23.133 6.961 3.473 9.848 5.208 10.371 8.433.047.29.991 7.374-13.341 31.113-2.294 3.799-4.628 7.442-6.788 10.703-11.639-22.95-35.026-64.91-58.622-82.931-11.859-9.054-28.876-16.829-50.656-23.182 16.674-33.884 43.714-62.666 76.487-81.52zm85.122 298.217c-3.299 7.966-4.005 20.893-3.676 33.468-18.446-25.032-37.178-52.654-40.644-64.11-4.003-13.226-2.877-32.867-1.482-45.668 16.653 7.573 40.764 19.042 49.194 25.119 4.063 2.928 8.146 5.267 12.096 7.528 11.12 6.367 15.321 9.389 15.321 15.919 0 2.661-1.128 3.914-9.583 8.288-7.466 3.86-16.759 8.667-21.226 19.456zm-178.073-165.499c1.826-11.086 4.713-22.03 8.572-32.656 20.308 5.742 36.25 12.781 46.411 20.538 25.354 19.364 52.716 75.228 58.831 88.167-1.594 10.305-5.791 42.834.797 64.601 5.412 17.89 33.94 57.382 51.478 80.617-107.943-12.083-184.119-112.009-166.089-221.267zm196.121 222.255c-1.96-18.036-2.878-41.115.43-49.105 1.558-3.762 5.549-6.04 11.936-9.343 8.122-4.201 20.396-10.549 20.396-26.052 0-18.741-14.074-26.8-25.383-33.275-3.503-2.006-7.126-4.081-10.341-6.397-10.719-7.725-38.012-20.508-53.76-27.63 2.998-4.388 6.604-9.863 10.171-15.766 16.478-27.258 17.047-38.622 16.043-44.793-2.216-13.658-13.178-19.127-21.183-23.122-6.965-3.475-9.854-5.211-10.373-8.402-.088-2.824 7.655-11.042 11.815-15.456 6.117-6.493 13.052-13.851 17.297-22.134 1.96-3.82 5.405-13.714-4.91-23.059-4.504-4.081-10.779-7.31-17.423-10.727-9.84-5.063-20.993-10.801-24.356-18.532-1.571-3.607-3.974-12.284-3.565-31.132 13.172-5.602 26.906-9.638 40.915-12.018 25.598-4.359 50.949-3.734 75.481 1.816v73.326c0 16.542 13.458 29.99 30 29.99h13.673c-6.818 16.755-3.878 28.196.52 35.307 3.896 6.303 2.138 12.983-1.054 23.359-3.482 11.325-7.817 25.42 1.054 39.771 8.814 14.262 23.597 17.568 36.639 20.486 10.665 2.386 20.739 4.639 27.44 12.365 3.126 3.608 9.424 13.576 17.325 40.125-30.922 57.334-90.85 97.366-158.787 100.398zm179.782-166.31c-1.589 13.272-4.614 26.264-9.019 38.849-4.616-11.887-9.312-20.534-14.188-26.163-11.021-12.704-25.452-15.933-38.186-18.781-12.155-2.719-19.817-4.729-23.992-11.484-3.901-6.311-2.143-12.995 1.05-23.376 3.482-11.321 7.815-25.41-1.051-39.756-3.173-5.13-1.437-14.016 4.719-24.78h19.934l37.071 37.071c2.861 2.861 7.161 3.715 10.898 2.167 3.736-1.548 6.173-5.194 6.173-9.239v-2.715c7.502 25.024 9.783 51.547 6.591 78.207z"/></g></svg>